<svg xmlns="http://www.w3.org/2000/svg" version="1.1" xmlns:xlink="http://www.w3.org/1999/xlink" xmlns:svgjs="http://svgjs.dev/svgjs" width="2000" height="737" viewBox="0 0 2000 737"><g transform="matrix(1,0,0,1,-1.2121212121213603,1.122561285696463)"><svg viewBox="0 0 396 146" data-background-color="#0c1d36" preserveAspectRatio="xMidYMid meet" height="737" width="2000" xmlns="http://www.w3.org/2000/svg" xmlns:xlink="http://www.w3.org/1999/xlink"><defs></defs><g id="tight-bounds" transform="matrix(1,0,0,1,0.24000000000003752,-0.22237984764136343)"><svg viewBox="0 0 395.5199999999999 146.44475969528273" height="146.44475969528273" width="395.5199999999999"><g><svg viewBox="0 0 667.6411242262391 247.2" height="146.44475969528273" width="395.5199999999999"><g transform="matrix(1,0,0,1,291.0755265586006,0)"><svg viewBox="0 0 376.5655976676385 247.2" height="247.2" width="376.5655976676385"><g><svg viewBox="0 0 376.5655976676385 247.2" height="247.2" width="376.5655976676385"><g><svg viewBox="0 0 376.5655976676385 247.2" height="247.2" width="376.5655976676385"><g transform="matrix(1,0,0,1,0,0)"><svg width="376.5655976676385" viewBox="1.9500000476837158 -33.900001525878906 52.25 34.30000305175781" height="247.2" data-palette-color="#f9cc0b"><path d="M22.7-32.2L22.7-32.2 22.7-25Q18.65-27.35 14.3-27.35L14.3-27.35Q12.35-27.35 11.33-26.55 10.3-25.75 10.3-24.5 10.3-23.25 11.55-22.28 12.8-21.3 15.3-20.2L15.3-20.2Q16.85-19.5 17.88-18.98 18.9-18.45 20.23-17.53 21.55-16.6 22.33-15.58 23.1-14.55 23.65-13.05 24.2-11.55 24.2-9.8L24.2-9.8Q24.2-5.25 20.85-2.43 17.5 0.4 11.95 0.4L11.95 0.4Q6 0.4 2.25-1.7L2.25-1.7 2.25-9.45Q6.8-6.15 11.95-6.15L11.95-6.15Q13.7-6.15 14.85-7.08 16-8 16-9.5L16-9.5Q16-10 15.85-10.45 15.7-10.9 15.3-11.3 14.9-11.7 14.53-11.98 14.15-12.25 13.43-12.63 12.7-13 12.2-13.25 11.7-13.5 10.73-13.95 9.75-14.4 9.15-14.65L9.15-14.65Q5.9-16.15 3.93-18.35 1.95-20.55 1.95-24.2L1.95-24.2Q1.95-28.55 5.15-31.23 8.35-33.9 14-33.9L14-33.9Q19.05-33.9 22.7-32.2ZM36.65-13.95L36.65-6.15 40.7-6.15Q46.4-6.15 46.4-10.05 46.4-13.95 40.75-13.95L40.75-13.95 36.65-13.95ZM40.75-27.55L36.65-27.55 36.65-20 39.5-20Q42.5-20 44.02-21.1 45.55-22.2 45.55-24L45.55-24Q45.55-27.55 40.75-27.55L40.75-27.55ZM28.95 0L28.95-33.7 42.05-33.7Q47.6-33.7 50.5-31.08 53.4-28.45 53.4-24.4L53.4-24.4Q53.4-21.75 52-19.75 50.6-17.75 48.35-17.05L48.35-17.05Q54.2-15.3 54.2-9.15L54.2-9.15Q54.2-5.15 51.32-2.58 48.45 0 43.5 0L43.5 0 28.95 0Z" opacity="1" transform="matrix(1,0,0,1,0,0)" fill="#f9cc0b" class="undefined-text-0" data-fill-palette-color="primary" id="text-0"></path></svg></g></svg></g></svg></g></svg></g><g transform="matrix(1,0,0,1,0,49.070272487527106)"><svg viewBox="0 0 232.7175393586006 149.05945502494578" height="149.05945502494578" width="232.7175393586006"><g><svg xmlns="http://www.w3.org/2000/svg" xmlns:xlink="http://www.w3.org/1999/xlink" version="1.1" x="0" y="0" viewBox="220.49996948242188 20.799999237060547 92.89376831054688 59.500003814697266" enable-background="new 216.8 0 100 100" xml:space="preserve" height="149.05945502494578" width="232.7175393586006" class="icon-icon-0" data-fill-palette-color="accent" id="icon-0"><g fill="#f9f9f9" data-fill-palette-color="accent"><path d="M285.6 67.4c0-3-2.3-4.4-5.2-4.4h-15.9l-6.7-18.4 0 0c-1-3.2-4-5.6-7.6-5.6-1.3 0-2.5 0.3-3.6 0.9l0 0c-14.5 7.3-22.9 20.7-26.1 40.4l19 0c0.5-8.3 2-18 8.8-23.8l7.8 11.7 0 0c0.9 1.7 2.7 3 4.7 3h19.6C283.4 71.2 285.6 70.4 285.6 67.4z" fill="#f9f9f9" data-fill-palette-color="accent"></path></g><path d="M290.2 76.3c-0.4-0.8-2.3-4-6.2-4-4.4 0-6.2 4.1-6.3 4.2-0.1 0.3-0.1 0.7 0.1 0.9 0.2 0.3 0.5 0.5 0.8 0.5h10.7c0 0 0 0 0 0 0.6 0 1-0.4 1-1C290.4 76.7 290.4 76.4 290.2 76.3z" fill="#f9f9f9" data-fill-palette-color="accent"></path><path d="M311.2 28.5c-1.8-0.8-3.8 0.1-4.6 1.9l-15.1 35.4c-0.8 1.8 0.1 3.8 1.9 4.6 0.4 0.2 0.9 0.3 1.4 0.3 1.4 0 2.7-0.8 3.2-2.1l2.7-6.4 5.1 10.6h-7.1c-1.4 0-2.5 1.1-2.5 2.5s1.1 2.5 2.5 2.5h11.1c0.9 0 1.7-0.4 2.1-1.2 0.5-0.7 0.5-1.6 0.1-2.4L303.4 56l9.7-22.9C313.9 31.3 313 29.3 311.2 28.5z" fill="#f9f9f9" data-fill-palette-color="accent"></path><path fill="#f9f9f9" d="M264 20.8c-2.5 0-4.8 0.9-6.5 2.4-0.9-1.5-2.5-2.4-4.4-2.4-2.9 0-5.2 2.3-5.2 5.2 0 2.9 2.3 5.2 5.2 5.2 0.3 0 0.6 0 0.9-0.1 0.2 5.4 4.6 9.6 10 9.6 5.5 0 10-4.5 10-10S269.5 20.8 264 20.8z" data-fill-palette-color="accent"></path></svg></g></svg></g></svg></g></svg><rect width="395.5199999999999" height="146.44475969528273" fill="none" stroke="none" visibility="hidden"></rect></g></svg></g></svg>